<svg width="660" height="440" viewBox="0 0 660 440" fill="none" xmlns="http://www.w3.org/2000/svg">
<path d="M660 220C660 161.652 636.821 105.695 595.563 64.4365C554.305 23.1785 498.348 5.10091e-06 440 0L440 220L660 220Z" fill="#009465"/>
<path d="M440 1.9233e-05C561.503 2.98551e-05 660 98.4974 660 220C660 341.503 561.503 440 440 440C318.497 440 220 341.503 220 220C220 98.4973 318.497 8.61091e-06 440 1.9233e-05Z" fill="#009465"/>
<path d="M440 440C498.348 440 554.305 416.822 595.563 375.564C636.821 334.306 660 278.348 660 220L440 220L440 440Z" fill="white"/>
<path d="M440 1.9233e-05C381.652 1.41321e-05 325.695 23.1785 284.437 64.4365C243.179 105.694 220 161.652 220 220L440 220L440 1.9233e-05Z" fill="black"/>
<path d="M440 110C500.751 110 550 159.249 550 220C550 280.751 500.751 330 440 330C379.249 330 330 280.751 330 220C330 159.249 379.249 110 440 110Z" fill="black"/>
<path d="M550 220C550 190.826 538.411 162.847 517.782 142.218C497.153 121.589 469.174 110 440 110C410.826 110 382.847 121.589 362.218 142.218C341.589 162.847 330 190.826 330 220L550 220Z" fill="white"/>
<path d="M0 440C121.503 440 220 341.503 220 220C220 98.4974 121.503 0 0 0C-121.503 0 -220 98.4974 -220 220C-220 341.503 -121.503 440 0 440Z" fill="black"/>
<path d="M220 220C220 248.891 214.31 277.499 203.253 304.19C192.197 330.882 175.992 355.135 155.564 375.564C135.135 395.992 110.882 412.197 84.1904 423.254C57.4987 434.31 28.8908 440 0 440V220H220Z" fill="#009465"/>
</svg>
